<svg width="301" height="276" viewBox="0 0 301 276" fill="none" xmlns="http://www.w3.org/2000/svg">
<rect x="50.8802" y="38.0001" width="199.24" height="200" rx="17.8707" stroke="url(#paint0_linear_32_792)" stroke-width="0.760456"/>
<rect x="62.6673" y="49.7871" width="175.665" height="176.426" rx="18.2509" fill="url(#paint1_linear_32_792)" fill-opacity="0.6" style="mix-blend-mode:multiply"/>
<rect x="80.9183" y="68.0381" width="139.163" height="42.5856" rx="6.08365" fill="#3D3D3D"/>
<rect x="93.0856" y="80.2053" width="30.4183" height="7.60456" fill="white" fill-opacity="0.6"/>
<rect x="93.0856" y="90.8518" width="73.0038" height="7.60456" fill="white" fill-opacity="0.2"/>
<path d="M194.226 89.3309L197.453 92.5572L203.905 86.1045" stroke="white" stroke-width="1.52091" stroke-linecap="round" stroke-linejoin="round"/>
<rect x="81.2985" y="117.088" width="138.403" height="41.8251" rx="5.70342" fill="#242424"/>
<rect x="81.2985" y="117.088" width="138.403" height="41.8251" rx="5.70342" stroke="white" stroke-width="0.760456"/>
<rect x="93.0856" y="128.875" width="30.4183" height="7.60456" fill="white" fill-opacity="0.6"/>
<rect x="93.0856" y="139.521" width="73.0038" height="7.60456" fill="white" fill-opacity="0.2"/>
<path d="M194.226 138L197.453 141.226L203.905 134.774" stroke="white" stroke-width="1.52091" stroke-linecap="round" stroke-linejoin="round"/>
<rect x="80.9183" y="165.376" width="139.163" height="42.5856" rx="6.08365" fill="#3D3D3D"/>
<rect x="93.0856" y="177.544" width="30.4183" height="7.60456" fill="white" fill-opacity="0.6"/>
<rect x="93.0856" y="188.19" width="73.0038" height="7.60456" fill="white" fill-opacity="0.2"/>
<path d="M194.226 186.669L197.453 189.896L203.905 183.443" stroke="white" stroke-width="1.52091" stroke-linecap="round" stroke-linejoin="round"/>
<defs>
<linearGradient id="paint0_linear_32_792" x1="184.721" y1="37.6199" x2="121.983" y2="238.38" gradientUnits="userSpaceOnUse">
<stop stop-color="white" stop-opacity="0"/>
<stop offset="0.498066" stop-color="white" stop-opacity="0.2"/>
<stop offset="1" stop-color="white" stop-opacity="0"/>
</linearGradient>
<linearGradient id="paint1_linear_32_792" x1="150.5" y1="49.7871" x2="150.5" y2="226.213" gradientUnits="userSpaceOnUse">
<stop offset="0.188406" stop-color="#333333"/>
<stop offset="1" stop-color="#616161" stop-opacity="0.3"/>
</linearGradient>
</defs>
</svg>
