<svg width="301" height="276" viewBox="0 0 301 276" fill="none" xmlns="http://www.w3.org/2000/svg">
<g opacity="0.3">
<rect x="47.5" y="112.5" width="47" height="47" rx="11.5" fill="white" fill-opacity="0.1"/>
<rect x="47.5" y="112.5" width="47" height="47" rx="11.5" stroke="white"/>
<rect x="65" y="130" width="12" height="12" rx="4" fill="white" fill-opacity="0.6"/>
</g>
<g opacity="0.5">
<rect x="99.5" y="112.5" width="47" height="47" rx="11.5" fill="white" fill-opacity="0.1"/>
<rect x="99.5" y="112.5" width="47" height="47" rx="11.5" stroke="white"/>
<rect x="102.25" y="115.25" width="41.5" height="41.5" rx="9.75" stroke="white" stroke-opacity="0.6" stroke-width="0.5"/>
<path d="M116.5 125.5C114.291 125.5 112.5 127.291 112.5 129.5V133.5C112.5 135.709 114.291 137.5 116.5 137.5H120.5C120.909 137.5 121.304 137.438 121.676 137.324C121.561 137.696 121.5 138.091 121.5 138.5V142.5C121.5 144.709 123.291 146.5 125.5 146.5H129.5C131.709 146.5 133.5 144.709 133.5 142.5V138.5C133.5 136.291 131.709 134.5 129.5 134.5H125.5C125.091 134.5 124.696 134.562 124.324 134.676C124.439 134.304 124.5 133.909 124.5 133.5V129.5C124.5 127.291 122.709 125.5 120.5 125.5H116.5Z" fill="white"/>
</g>
<g opacity="0.3">
<rect x="151.5" y="112.5" width="47" height="47" rx="11.5" fill="white" fill-opacity="0.1"/>
<rect x="151.5" y="112.5" width="47" height="47" rx="11.5" stroke="white"/>
<rect x="169" y="130" width="12" height="12" rx="4" fill="white" fill-opacity="0.6"/>
</g>
<g opacity="0.1">
<rect x="203.5" y="112.5" width="47" height="47" rx="11.5" fill="white" fill-opacity="0.1"/>
<rect x="203.5" y="112.5" width="47" height="47" rx="11.5" stroke="white"/>
<rect x="221" y="130" width="12" height="12" rx="4" fill="white" fill-opacity="0.6"/>
</g>
<g opacity="0.1">
<rect x="47.5" y="164.5" width="47" height="47" rx="11.5" fill="white" fill-opacity="0.1"/>
<rect x="47.5" y="164.5" width="47" height="47" rx="11.5" stroke="white"/>
<rect x="65" y="182" width="12" height="12" rx="4" fill="white" fill-opacity="0.6"/>
</g>
<g opacity="0.3">
<rect x="99.5" y="164.5" width="47" height="47" rx="11.5" fill="white" fill-opacity="0.1"/>
<rect x="99.5" y="164.5" width="47" height="47" rx="11.5" stroke="white"/>
<path d="M123 178C121.687 178 120.386 178.259 119.173 178.761C117.96 179.264 116.858 180 115.929 180.929C114.054 182.804 113 185.348 113 188C113 192.42 115.87 196.17 119.84 197.5C120.34 197.58 120.5 197.27 120.5 197V195.31C117.73 195.91 117.14 193.97 117.14 193.97C116.68 192.81 116.03 192.5 116.03 192.5C115.12 191.88 116.1 191.9 116.1 191.9C117.1 191.97 117.63 192.93 117.63 192.93C118.5 194.45 119.97 194 120.54 193.76C120.63 193.11 120.89 192.67 121.17 192.42C118.95 192.17 116.62 191.31 116.62 187.5C116.62 186.39 117 185.5 117.65 184.79C117.55 184.54 117.2 183.5 117.75 182.15C117.75 182.15 118.59 181.88 120.5 183.17C121.29 182.95 122.15 182.84 123 182.84C123.85 182.84 124.71 182.95 125.5 183.17C127.41 181.88 128.25 182.15 128.25 182.15C128.8 183.5 128.45 184.54 128.35 184.79C129 185.5 129.38 186.39 129.38 187.5C129.38 191.32 127.04 192.16 124.81 192.41C125.17 192.72 125.5 193.33 125.5 194.26V197C125.5 197.27 125.66 197.59 126.17 197.5C130.14 196.16 133 192.42 133 188C133 186.687 132.741 185.386 132.239 184.173C131.736 182.96 131 181.858 130.071 180.929C129.142 180 128.04 179.264 126.827 178.761C125.614 178.259 124.313 178 123 178Z" fill="white" fill-opacity="0.6"/>
</g>
<g opacity="0.1">
<rect x="151.5" y="164.5" width="47" height="47" rx="11.5" fill="white" fill-opacity="0.1"/>
<rect x="151.5" y="164.5" width="47" height="47" rx="11.5" stroke="white"/>
<rect x="169" y="182" width="12" height="12" rx="4" fill="white" fill-opacity="0.6"/>
</g>
<g opacity="0.1">
<rect x="203.5" y="164.5" width="47" height="47" rx="11.5" fill="white" fill-opacity="0.1"/>
<rect x="203.5" y="164.5" width="47" height="47" rx="11.5" stroke="white"/>
<rect x="221" y="182" width="12" height="12" rx="4" fill="white" fill-opacity="0.6"/>
</g>
<path d="M120.333 112C120.333 113.473 121.527 114.667 123 114.667C124.473 114.667 125.667 113.473 125.667 112C125.667 110.527 124.473 109.333 123 109.333C121.527 109.333 120.333 110.527 120.333 112ZM59 83.5H115V82.5H59V83.5ZM122.5 91V112H123.5V91H122.5ZM115 83.5C119.142 83.5 122.5 86.8579 122.5 91H123.5C123.5 86.3056 119.694 82.5 115 82.5V83.5ZM59 82.5C54.8579 82.5 51.5 79.1421 51.5 75H50.5C50.5 79.6944 54.3056 83.5 59 83.5V82.5ZM51.5 75V64H50.5V75H51.5Z" fill="url(#paint0_linear_32_817)"/>
<defs>
<linearGradient id="paint0_linear_32_817" x1="87" y1="64" x2="87" y2="112" gradientUnits="userSpaceOnUse">
<stop offset="0.0455131" stop-color="#7F7F7F" stop-opacity="0"/>
<stop offset="1" stop-color="#7F7F7F"/>
</linearGradient>
</defs>
</svg>
