<svg width="48" height="48" viewBox="0 0 48 48" fill="none" xmlns="http://www.w3.org/2000/svg">
<g filter="url(#filter0_i_32_620)">
<rect width="48" height="48" rx="8" fill="#2B2C2E"/>
<g clip-path="url(#clip0_32_620)">
<path d="M31.8572 27.5713C32.6462 27.5713 33.2857 28.2109 33.2857 28.9999V31.857C33.2857 32.646 32.6462 33.2856 31.8572 33.2856H16.1429C15.3539 33.2856 14.7143 32.646 14.7143 31.857V28.9999C14.7143 28.2109 15.3539 27.5713 16.1429 27.5713H31.8572Z" fill="white"/>
<path d="M24 14.7144C24.789 14.7144 25.4286 15.3539 25.4286 16.1429V24.0001C25.4286 24.789 24.789 25.4286 24 25.4286H16.0451C15.2562 25.4286 14.6166 24.789 14.6166 24.0001V16.1429C14.6166 15.3539 15.2562 14.7144 16.0451 14.7144H24Z" fill="white"/>
<path d="M32.5714 20.7856C32.9658 20.7856 33.2857 21.1054 33.2857 21.4999V24.7142C33.2857 25.1087 32.9658 25.4285 32.5714 25.4285H28.2857C27.8912 25.4285 27.5714 25.1087 27.5714 24.7142V21.4999C27.5714 21.1054 27.8912 20.7856 28.2857 20.7856H32.5714Z" fill="white"/>
<path d="M32.5714 14.7144C32.9658 14.7144 33.2857 15.0342 33.2857 15.4286V18.6429C33.2857 19.0374 32.9658 19.3572 32.5714 19.3572H28.2857C27.8912 19.3572 27.5714 19.0374 27.5714 18.6429V15.4286C27.5714 15.0342 27.8912 14.7144 28.2857 14.7144H32.5714Z" fill="white"/>
</g>
</g>
<defs>
<filter id="filter0_i_32_620" x="0" y="0" width="48" height="48" filterUnits="userSpaceOnUse" color-interpolation-filters="sRGB">
<feFlood flood-opacity="0" result="BackgroundImageFix"/>
<feBlend mode="normal" in="SourceGraphic" in2="BackgroundImageFix" result="shape"/>
<feColorMatrix in="SourceAlpha" type="matrix" values="0 0 0 0 0 0 0 0 0 0 0 0 0 0 0 0 0 0 127 0" result="hardAlpha"/>
<feMorphology radius="1" operator="erode" in="SourceAlpha" result="effect1_innerShadow_32_620"/>
<feOffset/>
<feGaussianBlur stdDeviation="4"/>
<feComposite in2="hardAlpha" operator="arithmetic" k2="-1" k3="1"/>
<feColorMatrix type="matrix" values="0 0 0 0 1 0 0 0 0 1 0 0 0 0 1 0 0 0 0.15 0"/>
<feBlend mode="normal" in2="shape" result="effect1_innerShadow_32_620"/>
</filter>
<clipPath id="clip0_32_620">
<rect width="20" height="20" fill="white" transform="translate(14 14)"/>
</clipPath>
</defs>
</svg>
