<svg width="1080" height="994" viewBox="0 0 1080 994" fill="none" xmlns="http://www.w3.org/2000/svg">
<circle cx="872" cy="335" r="187" fill="url(#paint0_linear_6_35)"/>
<circle cx="375.5" cy="424.5" r="106.5" fill="url(#paint1_linear_6_35)"/>
<g filter="url(#filter0_f_6_35)">
<path d="M449.675 477.777C478.68 405.165 422.58 347 422.58 347C422.58 347 452.347 418.851 418 485L449.675 477.777Z" fill="#E57221"/>
</g>
<circle cx="625.5" cy="607.5" r="124.5" fill="url(#paint2_linear_6_35)"/>
<g filter="url(#filter1_f_6_35)">
<path d="M625.5 483C556.741 483 501 538.741 501 607.5C501 629.868 506.899 650.858 517.226 669C517.226 669 545.397 592.561 586 559.5C626.348 526.647 707.138 513.5 707.138 513.5C685.281 494.501 656.734 483 625.5 483Z" fill="#E57221"/>
</g>
<circle cx="903.5" cy="718.5" r="246.5" transform="rotate(180 903.5 718.5)" fill="url(#paint3_linear_6_35)"/>
<circle cx="501" cy="498" r="94" fill="#E57221"/>
<circle cx="356" cy="592" r="140" fill="url(#paint4_linear_6_35)"/>
<g filter="url(#filter2_d_6_35)">
<circle cx="356" cy="592" r="140" fill="black" fill-opacity="0.05" shape-rendering="crispEdges"/>
</g>
<ellipse cx="257.879" cy="192.913" rx="247.5" ry="247" transform="rotate(9.13689 257.879 192.913)" fill="url(#paint5_linear_6_35)"/>
<g filter="url(#filter3_f_6_35)">
<path d="M274.186 494.21C408.904 515.877 535.703 424.084 557.399 289.183C561.237 265.323 561.529 241.713 558.665 218.89C558.665 218.89 421.449 239.378 352.954 290.503C284.025 341.952 214.279 476.636 214.279 476.636C233.009 484.831 253.068 490.814 274.186 494.21Z" fill="#DA6E24" fill-opacity="0.5"/>
</g>
<ellipse cx="637.5" cy="328" rx="152" ry="151.5" transform="rotate(-90 637.5 328)" fill="url(#paint6_linear_6_35)"/>
<g filter="url(#filter4_f_6_35)">
<path d="M486 327.801C486 411.858 554.027 480 637.944 480C665.242 480 690.859 472.789 713 460.165C713 460.165 619.712 425.725 579.363 376.089C539.268 326.765 523.223 228 523.223 228C500.037 254.72 486 289.618 486 327.801Z" fill="#B47346"/>
</g>
<circle cx="826.5" cy="54.5" r="280.5" fill="url(#paint7_linear_6_35)"/>
<defs>
<filter id="filter0_f_6_35" x="388" y="317" width="100" height="198" filterUnits="userSpaceOnUse" color-interpolation-filters="sRGB">
<feFlood flood-opacity="0" result="BackgroundImageFix"/>
<feBlend mode="normal" in="SourceGraphic" in2="BackgroundImageFix" result="shape"/>
<feGaussianBlur stdDeviation="15" result="effect1_foregroundBlur_6_35"/>
</filter>
<filter id="filter1_f_6_35" x="451" y="433" width="306.138" height="286" filterUnits="userSpaceOnUse" color-interpolation-filters="sRGB">
<feFlood flood-opacity="0" result="BackgroundImageFix"/>
<feBlend mode="normal" in="SourceGraphic" in2="BackgroundImageFix" result="shape"/>
<feGaussianBlur stdDeviation="25" result="effect1_foregroundBlur_6_35"/>
</filter>
<filter id="filter2_d_6_35" x="212" y="452" width="288" height="288" filterUnits="userSpaceOnUse" color-interpolation-filters="sRGB">
<feFlood flood-opacity="0" result="BackgroundImageFix"/>
<feColorMatrix in="SourceAlpha" type="matrix" values="0 0 0 0 0 0 0 0 0 0 0 0 0 0 0 0 0 0 127 0" result="hardAlpha"/>
<feOffset dy="4"/>
<feGaussianBlur stdDeviation="2"/>
<feComposite in2="hardAlpha" operator="out"/>
<feColorMatrix type="matrix" values="0 0 0 0 0 0 0 0 0 0 0 0 0 0 0 0 0 0 0.25 0"/>
<feBlend mode="normal" in2="BackgroundImageFix" result="effect1_dropShadow_6_35"/>
<feBlend mode="normal" in="SourceGraphic" in2="effect1_dropShadow_6_35" result="shape"/>
</filter>
<filter id="filter3_f_6_35" x="114.279" y="118.89" width="546.3" height="478.487" filterUnits="userSpaceOnUse" color-interpolation-filters="sRGB">
<feFlood flood-opacity="0" result="BackgroundImageFix"/>
<feBlend mode="normal" in="SourceGraphic" in2="BackgroundImageFix" result="shape"/>
<feGaussianBlur stdDeviation="50" result="effect1_foregroundBlur_6_35"/>
</filter>
<filter id="filter4_f_6_35" x="436" y="178" width="327" height="352" filterUnits="userSpaceOnUse" color-interpolation-filters="sRGB">
<feFlood flood-opacity="0" result="BackgroundImageFix"/>
<feBlend mode="normal" in="SourceGraphic" in2="BackgroundImageFix" result="shape"/>
<feGaussianBlur stdDeviation="25" result="effect1_foregroundBlur_6_35"/>
</filter>
<linearGradient id="paint0_linear_6_35" x1="734" y1="335" x2="1044" y2="457" gradientUnits="userSpaceOnUse">
<stop stop-color="#3F4048"/>
<stop offset="1" stop-color="#32333A"/>
</linearGradient>
<linearGradient id="paint1_linear_6_35" x1="306" y1="424" x2="449" y2="549" gradientUnits="userSpaceOnUse">
<stop stop-color="#7D5034"/>
<stop offset="1" stop-color="#D0712F"/>
</linearGradient>
<linearGradient id="paint2_linear_6_35" x1="578.5" y1="537.5" x2="758" y2="719" gradientUnits="userSpaceOnUse">
<stop stop-color="#E67221"/>
<stop offset="1" stop-color="#3F4048"/>
</linearGradient>
<linearGradient id="paint3_linear_6_35" x1="755.6" y1="526.582" x2="1064.61" y2="904.255" gradientUnits="userSpaceOnUse">
<stop stop-color="#131417"/>
<stop offset="1" stop-color="#32333A"/>
</linearGradient>
<linearGradient id="paint4_linear_6_35" x1="451.5" y1="493" x2="289" y2="732" gradientUnits="userSpaceOnUse">
<stop stop-color="#9A5A2D"/>
<stop offset="1" stop-color="#3F4048"/>
</linearGradient>
<linearGradient id="paint5_linear_6_35" x1="139.99" y1="-1.10889" x2="399.207" y2="359.912" gradientUnits="userSpaceOnUse">
<stop stop-color="#313236"/>
<stop offset="1" stop-color="#3F4048"/>
</linearGradient>
<linearGradient id="paint6_linear_6_35" x1="529" y1="220.5" x2="714.895" y2="404.112" gradientUnits="userSpaceOnUse">
<stop stop-color="#CF7E46"/>
<stop offset="1" stop-color="#3F4048"/>
</linearGradient>
<linearGradient id="paint7_linear_6_35" x1="827" y1="-62.5" x2="735.5" y2="259.5" gradientUnits="userSpaceOnUse">
<stop stop-color="#131417"/>
<stop offset="1" stop-color="#32333A"/>
</linearGradient>
</defs>
</svg>
