<svg width="27" height="26" viewBox="0 0 27 26" fill="none" xmlns="http://www.w3.org/2000/svg">
<path fill-rule="evenodd" clip-rule="evenodd" d="M22.1751 4.79913C22.4428 4.68645 22.7358 4.64759 23.0237 4.68659C23.3115 4.72559 23.5836 4.84102 23.8117 5.02087C24.0398 5.20072 24.2155 5.43842 24.3205 5.70922C24.4255 5.98002 24.4561 6.27402 24.4089 6.56063L21.9519 21.464C21.7136 22.9016 20.1363 23.726 18.8178 23.01C17.715 22.4109 16.077 21.4879 14.6037 20.5248C13.867 20.0427 11.6104 18.499 11.8878 17.4005C12.1261 16.4612 15.9178 12.9317 18.0844 10.8333C18.9348 10.0089 18.547 9.5333 17.5428 10.2916C15.0489 12.1745 11.0449 15.0377 9.72109 15.8437C8.55326 16.5544 7.94443 16.6757 7.21643 16.5544C5.88826 16.3334 4.65651 15.991 3.65118 15.574C2.29268 15.0106 2.35876 13.143 3.65009 12.5991L22.1751 4.79913Z" fill="white"/>
</svg>
