<svg width="290" height="350" viewBox="0 0 290 350" fill="none" xmlns="http://www.w3.org/2000/svg">
<circle cx="145" cy="175" r="84" stroke="white" stroke-opacity="0.2" stroke-width="2"/>
<circle cx="145" cy="175" r="24" stroke="white" stroke-opacity="0.2" stroke-width="2"/>
<circle cx="145" cy="175" r="54" stroke="white" stroke-opacity="0.2" stroke-width="2"/>
<rect width="10" height="12" transform="translate(140 84)" fill="#1D1D1D"/>
<path d="M145.024 94.2715C144.584 94.2715 144.188 94.1715 143.836 93.9715C143.484 93.7715 143.184 93.4875 142.936 93.1195C142.696 92.7435 142.512 92.2955 142.384 91.7755C142.256 91.2475 142.192 90.6595 142.192 90.0115C142.192 89.3235 142.264 88.7155 142.408 88.1875C142.552 87.6515 142.748 87.2035 142.996 86.8435C143.252 86.4755 143.548 86.1995 143.884 86.0155C144.228 85.8235 144.596 85.7275 144.988 85.7275C145.428 85.7275 145.82 85.8275 146.164 86.0275C146.516 86.2275 146.812 86.5155 147.052 86.8915C147.3 87.2595 147.488 87.7075 147.616 88.2355C147.744 88.7555 147.808 89.3395 147.808 89.9875C147.808 90.6755 147.736 91.2875 147.592 91.8235C147.448 92.3515 147.248 92.7995 146.992 93.1675C146.744 93.5275 146.452 93.8035 146.116 93.9955C145.78 94.1795 145.416 94.2715 145.024 94.2715ZM145.024 93.2635C145.248 93.2635 145.46 93.2035 145.66 93.0835C145.868 92.9555 146.048 92.7595 146.2 92.4955C146.36 92.2315 146.484 91.8955 146.572 91.4875C146.66 91.0715 146.704 90.5715 146.704 89.9875C146.704 88.8675 146.544 88.0475 146.224 87.5275C145.904 86.9995 145.492 86.7355 144.988 86.7355C144.756 86.7355 144.536 86.7955 144.328 86.9155C144.128 87.0355 143.952 87.2275 143.8 87.4915C143.648 87.7555 143.524 88.0955 143.428 88.5115C143.34 88.9275 143.296 89.4275 143.296 90.0115C143.296 90.5715 143.336 91.0555 143.416 91.4635C143.504 91.8715 143.624 92.2115 143.776 92.4835C143.936 92.7475 144.12 92.9435 144.328 93.0715C144.536 93.1995 144.768 93.2635 145.024 93.2635Z" fill="white"/>
<rect width="12" height="14" transform="translate(224 168)" fill="#1D1D1D"/>
<path d="M226.644 172.144L225.012 172.756V171.688L227.688 170.668V179.212H226.644V172.144Z" fill="white"/>
<path d="M232.036 179.332C231.516 179.332 231.028 179.232 230.572 179.032C230.124 178.832 229.752 178.524 229.456 178.108L230.26 177.424C230.444 177.704 230.68 177.932 230.968 178.108C231.256 178.276 231.612 178.36 232.036 178.36C232.308 178.36 232.56 178.316 232.792 178.228C233.024 178.14 233.224 178.016 233.392 177.856C233.56 177.688 233.688 177.492 233.776 177.268C233.872 177.044 233.92 176.796 233.92 176.524C233.92 176.236 233.872 175.984 233.776 175.768C233.68 175.544 233.544 175.36 233.368 175.216C233.2 175.072 232.996 174.964 232.756 174.892C232.516 174.82 232.256 174.784 231.976 174.784C231.792 174.784 231.612 174.808 231.436 174.856C231.26 174.896 231.092 174.948 230.932 175.012H230.344L230.824 170.812H234.412V171.832H231.676L231.448 173.98C231.568 173.948 231.688 173.924 231.808 173.908C231.936 173.884 232.064 173.872 232.192 173.872C232.624 173.872 233.012 173.936 233.356 174.064C233.7 174.192 233.992 174.376 234.232 174.616C234.48 174.848 234.668 175.128 234.796 175.456C234.924 175.784 234.988 176.148 234.988 176.548C234.988 176.956 234.916 177.332 234.772 177.676C234.628 178.02 234.424 178.316 234.16 178.564C233.896 178.804 233.584 178.992 233.224 179.128C232.864 179.264 232.468 179.332 232.036 179.332Z" fill="white"/>
<rect width="16" height="14" transform="translate(137 253)" fill="#1D1D1D"/>
<path d="M141.375 264.32C140.879 264.32 140.399 264.224 139.935 264.032C139.471 263.832 139.091 263.524 138.795 263.108L139.539 262.436C139.739 262.692 139.987 262.908 140.283 263.084C140.587 263.26 140.955 263.348 141.387 263.348C141.659 263.348 141.907 263.308 142.131 263.228C142.363 263.148 142.559 263.032 142.719 262.88C142.887 262.728 143.015 262.548 143.103 262.34C143.199 262.132 143.247 261.9 143.247 261.644C143.247 261.156 143.079 260.776 142.743 260.504C142.415 260.232 141.979 260.096 141.435 260.096H141.123V259.22H141.435C141.875 259.22 142.211 259.096 142.443 258.848C142.675 258.6 142.791 258.288 142.791 257.912C142.791 257.544 142.671 257.24 142.431 257C142.199 256.76 141.863 256.64 141.423 256.64C141.047 256.64 140.715 256.724 140.427 256.892C140.147 257.06 139.923 257.264 139.755 257.504L139.071 256.904C139.311 256.544 139.639 256.252 140.055 256.028C140.471 255.796 140.931 255.68 141.435 255.68C141.795 255.68 142.123 255.732 142.419 255.836C142.715 255.94 142.967 256.088 143.175 256.28C143.391 256.472 143.555 256.7 143.667 256.964C143.779 257.22 143.835 257.504 143.835 257.816C143.835 258.272 143.711 258.648 143.463 258.944C143.223 259.232 142.947 259.44 142.635 259.568C143.131 259.704 143.535 259.968 143.847 260.36C144.159 260.744 144.315 261.204 144.315 261.74C144.315 262.116 144.239 262.464 144.087 262.784C143.943 263.096 143.739 263.368 143.475 263.6C143.219 263.824 142.911 264 142.551 264.128C142.191 264.256 141.799 264.32 141.375 264.32Z" fill="white"/>
<path d="M148.421 264.272C147.981 264.272 147.585 264.172 147.233 263.972C146.881 263.772 146.581 263.488 146.333 263.12C146.093 262.744 145.909 262.296 145.781 261.776C145.653 261.248 145.589 260.66 145.589 260.012C145.589 259.324 145.661 258.716 145.805 258.188C145.949 257.652 146.145 257.204 146.393 256.844C146.649 256.476 146.945 256.2 147.281 256.016C147.625 255.824 147.993 255.728 148.385 255.728C148.825 255.728 149.217 255.828 149.561 256.028C149.913 256.228 150.209 256.516 150.449 256.892C150.697 257.26 150.885 257.708 151.013 258.236C151.141 258.756 151.205 259.34 151.205 259.988C151.205 260.676 151.133 261.288 150.989 261.824C150.845 262.352 150.645 262.8 150.389 263.168C150.141 263.528 149.849 263.804 149.513 263.996C149.177 264.18 148.813 264.272 148.421 264.272ZM148.421 263.264C148.645 263.264 148.857 263.204 149.057 263.084C149.265 262.956 149.445 262.76 149.597 262.496C149.757 262.232 149.881 261.896 149.969 261.488C150.057 261.072 150.101 260.572 150.101 259.988C150.101 258.868 149.941 258.048 149.621 257.528C149.301 257 148.889 256.736 148.385 256.736C148.153 256.736 147.933 256.796 147.725 256.916C147.525 257.036 147.349 257.228 147.197 257.492C147.045 257.756 146.921 258.096 146.825 258.512C146.737 258.928 146.693 259.428 146.693 260.012C146.693 260.572 146.733 261.056 146.813 261.464C146.901 261.872 147.021 262.212 147.173 262.484C147.333 262.748 147.517 262.944 147.725 263.072C147.933 263.2 148.165 263.264 148.421 263.264Z" fill="white"/>
<rect width="12" height="14" transform="translate(54 168)" fill="#1D1D1D"/>
<path d="M57.6902 176.92H53.7662V176.404L58.2782 170.68H58.7582V175.96H59.7782V176.92H58.7582V179.2H57.6902V176.92ZM57.6902 175.96V172.936L55.2902 175.96H57.6902Z" fill="white"/>
<path d="M63.2818 179.32C62.7618 179.32 62.2738 179.22 61.8178 179.02C61.3698 178.82 60.9978 178.512 60.7018 178.096L61.5058 177.412C61.6898 177.692 61.9258 177.92 62.2138 178.096C62.5018 178.264 62.8578 178.348 63.2818 178.348C63.5538 178.348 63.8058 178.304 64.0378 178.216C64.2698 178.128 64.4698 178.004 64.6378 177.844C64.8058 177.676 64.9338 177.48 65.0218 177.256C65.1178 177.032 65.1658 176.784 65.1658 176.512C65.1658 176.224 65.1178 175.972 65.0218 175.756C64.9258 175.532 64.7898 175.348 64.6138 175.204C64.4458 175.06 64.2418 174.952 64.0018 174.88C63.7618 174.808 63.5018 174.772 63.2218 174.772C63.0378 174.772 62.8578 174.796 62.6818 174.844C62.5058 174.884 62.3378 174.936 62.1778 175H61.5898L62.0698 170.8H65.6578V171.82H62.9218L62.6938 173.968C62.8138 173.936 62.9338 173.912 63.0538 173.896C63.1818 173.872 63.3098 173.86 63.4378 173.86C63.8698 173.86 64.2578 173.924 64.6018 174.052C64.9458 174.18 65.2378 174.364 65.4778 174.604C65.7258 174.836 65.9138 175.116 66.0418 175.444C66.1698 175.772 66.2338 176.136 66.2338 176.536C66.2338 176.944 66.1618 177.32 66.0178 177.664C65.8738 178.008 65.6698 178.304 65.4058 178.552C65.1418 178.792 64.8298 178.98 64.4698 179.116C64.1098 179.252 63.7138 179.32 63.2818 179.32Z" fill="white"/>
<path fill-rule="evenodd" clip-rule="evenodd" d="M153.175 166.799C153.443 166.686 153.736 166.648 154.024 166.687C154.311 166.726 154.584 166.841 154.812 167.021C155.04 167.201 155.215 167.438 155.32 167.709C155.426 167.98 155.456 168.274 155.409 168.561L152.952 183.464C152.714 184.902 151.136 185.726 149.818 185.01C148.715 184.411 147.077 183.488 145.604 182.525C144.867 182.043 142.61 180.499 142.888 179.4C143.126 178.461 146.918 174.932 149.084 172.833C149.935 172.009 149.547 171.533 148.543 172.292C146.049 174.174 142.045 177.038 140.721 177.844C139.553 178.554 138.944 178.676 138.216 178.554C136.888 178.333 135.657 177.991 134.651 177.574C133.293 177.011 133.359 175.143 134.65 174.599L153.175 166.799Z" fill="white"/>
<path d="M72.2966 156.815C67.7967 151.672 69.7966 144.315 79.2966 144.315H105.797C110.797 144.315 110.438 145.763 114.297 146.815C120.797 148.588 125.297 145.815 126.297 141.315C126.297 141.315 127.022 135.188 127.797 131.315C128.797 126.315 143.797 103.815 143.797 103.815C146.297 100.315 151.797 99.816 153.797 103.815C153.797 103.815 160.4 112.677 162.297 119.315C163.297 122.816 165.982 140.113 169.797 142.316C173.611 144.519 177.835 143.145 181.297 146.316C184.719 149.451 182.313 154.028 185.797 156.815C190.797 160.816 216.297 167.815 216.297 167.815C222.297 169.816 220.797 177.316 217.297 180.315C213.797 183.315 191.388 197.451 190.297 201.816C188.797 207.816 198.708 219.843 199.297 226.315C199.797 231.816 198.297 239.816 188.797 236.815C188.797 236.815 169.297 227.816 164.797 228.316C159.443 228.91 160.58 235.016 155.797 236.815C149.057 239.351 144.626 232.722 137.297 233.315C125.973 234.233 122.111 242.554 111.797 247.315C105.297 250.316 100.797 245.816 101.297 240.815C102.35 230.279 105.297 217.816 103.797 213.815C101.42 207.477 92.7156 210.158 89.2966 204.315C84.4006 195.948 95.5487 189.245 93.2966 179.815C90.4712 167.985 76.7966 161.958 72.2966 156.815Z" stroke="#FFB079" stroke-width="2"/>
<g filter="url(#filter0_f_64_582)">
<path d="M72.2966 156.815C67.7967 151.672 69.7966 144.315 79.2966 144.315H105.797C110.797 144.315 110.438 145.763 114.297 146.815C120.797 148.588 125.297 145.815 126.297 141.315C126.297 141.315 127.022 135.188 127.797 131.315C128.797 126.315 143.797 103.815 143.797 103.815C146.297 100.315 151.797 99.816 153.797 103.815C153.797 103.815 160.4 112.677 162.297 119.315C163.297 122.816 165.982 140.113 169.797 142.316C173.611 144.519 177.835 143.145 181.297 146.316C184.719 149.451 182.313 154.028 185.797 156.815C190.797 160.816 216.297 167.815 216.297 167.815C222.297 169.816 220.797 177.316 217.297 180.315C213.797 183.315 191.388 197.451 190.297 201.816C188.797 207.816 198.708 219.843 199.297 226.315C199.797 231.816 198.297 239.816 188.797 236.815C188.797 236.815 169.297 227.816 164.797 228.316C159.443 228.91 160.58 235.016 155.797 236.815C149.057 239.351 144.626 232.722 137.297 233.315C125.973 234.233 122.111 242.554 111.797 247.315C105.297 250.316 100.797 245.816 101.297 240.815C102.35 230.279 105.297 217.816 103.797 213.815C101.42 207.477 92.7156 210.158 89.2966 204.315C84.4006 195.948 95.5487 189.245 93.2966 179.815C90.4712 167.985 76.7966 161.958 72.2966 156.815Z" stroke="#FF9143" stroke-width="2"/>
</g>
<g filter="url(#filter1_f_64_582)">
<path d="M72.2966 156.815C67.7967 151.672 69.7966 144.315 79.2966 144.315H105.797C110.797 144.315 110.438 145.763 114.297 146.815C120.797 148.588 125.297 145.815 126.297 141.315C126.297 141.315 127.022 135.188 127.797 131.315C128.797 126.315 143.797 103.815 143.797 103.815C146.297 100.315 151.797 99.816 153.797 103.815C153.797 103.815 160.4 112.677 162.297 119.315C163.297 122.816 165.982 140.113 169.797 142.316C173.611 144.519 177.835 143.145 181.297 146.316C184.719 149.451 182.313 154.028 185.797 156.815C190.797 160.816 216.297 167.815 216.297 167.815C222.297 169.816 220.797 177.316 217.297 180.315C213.797 183.315 191.388 197.451 190.297 201.816C188.797 207.816 198.708 219.843 199.297 226.315C199.797 231.816 198.297 239.816 188.797 236.815C188.797 236.815 169.297 227.816 164.797 228.316C159.443 228.91 160.58 235.016 155.797 236.815C149.057 239.351 144.626 232.722 137.297 233.315C125.973 234.233 122.111 242.554 111.797 247.315C105.297 250.316 100.797 245.816 101.297 240.815C102.35 230.279 105.297 217.816 103.797 213.815C101.42 207.477 92.7156 210.158 89.2966 204.315C84.4006 195.948 95.5487 189.245 93.2966 179.815C90.4712 167.985 76.7966 161.958 72.2966 156.815Z" stroke="#FF9143" stroke-width="2"/>
</g>
<g filter="url(#filter2_f_64_582)">
<path d="M72.2966 156.815C67.7967 151.672 69.7966 144.315 79.2966 144.315H105.797C110.797 144.315 110.438 145.763 114.297 146.815C120.797 148.588 125.297 145.815 126.297 141.315C126.297 141.315 127.022 135.188 127.797 131.315C128.797 126.315 143.797 103.815 143.797 103.815C146.297 100.315 151.797 99.816 153.797 103.815C153.797 103.815 160.4 112.677 162.297 119.315C163.297 122.816 165.982 140.113 169.797 142.316C173.611 144.519 177.835 143.145 181.297 146.316C184.719 149.451 182.313 154.028 185.797 156.815C190.797 160.816 216.297 167.815 216.297 167.815C222.297 169.816 220.797 177.316 217.297 180.315C213.797 183.315 191.388 197.451 190.297 201.816C188.797 207.816 198.708 219.843 199.297 226.315C199.797 231.816 198.297 239.816 188.797 236.815C188.797 236.815 169.297 227.816 164.797 228.316C159.443 228.91 160.58 235.016 155.797 236.815C149.057 239.351 144.626 232.722 137.297 233.315C125.973 234.233 122.111 242.554 111.797 247.315C105.297 250.316 100.797 245.816 101.297 240.815C102.35 230.279 105.297 217.816 103.797 213.815C101.42 207.477 92.7156 210.158 89.2966 204.315C84.4006 195.948 95.5487 189.245 93.2966 179.815C90.4712 167.985 76.7966 161.958 72.2966 156.815Z" stroke="#FF9143" stroke-width="2"/>
</g>
<g filter="url(#filter3_f_64_582)">
<path d="M72.2966 156.815C67.7967 151.672 69.7966 144.315 79.2966 144.315H105.797C110.797 144.315 110.438 145.763 114.297 146.815C120.797 148.588 125.297 145.815 126.297 141.315C126.297 141.315 127.022 135.188 127.797 131.315C128.797 126.315 143.797 103.815 143.797 103.815C146.297 100.315 151.797 99.816 153.797 103.815C153.797 103.815 160.4 112.677 162.297 119.315C163.297 122.816 165.982 140.113 169.797 142.316C173.611 144.519 177.835 143.145 181.297 146.316C184.719 149.451 182.313 154.028 185.797 156.815C190.797 160.816 216.297 167.815 216.297 167.815C222.297 169.816 220.797 177.316 217.297 180.315C213.797 183.315 191.388 197.451 190.297 201.816C188.797 207.816 198.708 219.843 199.297 226.315C199.797 231.816 198.297 239.816 188.797 236.815C188.797 236.815 169.297 227.816 164.797 228.316C159.443 228.91 160.58 235.016 155.797 236.815C149.057 239.351 144.626 232.722 137.297 233.315C125.973 234.233 122.111 242.554 111.797 247.315C105.297 250.316 100.797 245.816 101.297 240.815C102.35 230.279 105.297 217.816 103.797 213.815C101.42 207.477 92.7156 210.158 89.2966 204.315C84.4006 195.948 95.5487 189.245 93.2966 179.815C90.4712 167.985 76.7966 161.958 72.2966 156.815Z" stroke="#FF9143" stroke-width="2"/>
</g>
<g filter="url(#filter4_f_64_582)">
<path d="M72.2966 156.815C67.7967 151.672 69.7966 144.315 79.2966 144.315H105.797C110.797 144.315 110.438 145.763 114.297 146.815C120.797 148.588 125.297 145.815 126.297 141.315C126.297 141.315 127.022 135.188 127.797 131.315C128.797 126.315 143.797 103.815 143.797 103.815C146.297 100.315 151.797 99.816 153.797 103.815C153.797 103.815 160.4 112.677 162.297 119.315C163.297 122.816 165.982 140.113 169.797 142.316C173.611 144.519 177.835 143.145 181.297 146.316C184.719 149.451 182.313 154.028 185.797 156.815C190.797 160.816 216.297 167.815 216.297 167.815C222.297 169.816 220.797 177.316 217.297 180.315C213.797 183.315 191.388 197.451 190.297 201.816C188.797 207.816 198.708 219.843 199.297 226.315C199.797 231.816 198.297 239.816 188.797 236.815C188.797 236.815 169.297 227.816 164.797 228.316C159.443 228.91 160.58 235.016 155.797 236.815C149.057 239.351 144.626 232.722 137.297 233.315C125.973 234.233 122.111 242.554 111.797 247.315C105.297 250.316 100.797 245.816 101.297 240.815C102.35 230.279 105.297 217.816 103.797 213.815C101.42 207.477 92.7156 210.158 89.2966 204.315C84.4006 195.948 95.5487 189.245 93.2966 179.815C90.4712 167.985 76.7966 161.958 72.2966 156.815Z" stroke="#FF9143" stroke-width="2"/>
</g>
<defs>
<filter id="filter0_f_64_582" x="-31.0013" y="0" width="352.363" height="349.281" filterUnits="userSpaceOnUse" color-interpolation-filters="sRGB">
<feFlood flood-opacity="0" result="BackgroundImageFix"/>
<feBlend mode="normal" in="SourceGraphic" in2="BackgroundImageFix" result="shape"/>
<feGaussianBlur stdDeviation="50" result="effect1_foregroundBlur_64_582"/>
</filter>
<filter id="filter1_f_64_582" x="18.9987" y="50" width="252.363" height="249.281" filterUnits="userSpaceOnUse" color-interpolation-filters="sRGB">
<feFlood flood-opacity="0" result="BackgroundImageFix"/>
<feBlend mode="normal" in="SourceGraphic" in2="BackgroundImageFix" result="shape"/>
<feGaussianBlur stdDeviation="25" result="effect1_foregroundBlur_64_582"/>
</filter>
<filter id="filter2_f_64_582" x="43.9987" y="75" width="202.363" height="199.281" filterUnits="userSpaceOnUse" color-interpolation-filters="sRGB">
<feFlood flood-opacity="0" result="BackgroundImageFix"/>
<feBlend mode="normal" in="SourceGraphic" in2="BackgroundImageFix" result="shape"/>
<feGaussianBlur stdDeviation="12.5" result="effect1_foregroundBlur_64_582"/>
</filter>
<filter id="filter3_f_64_582" x="53.9987" y="85" width="182.363" height="179.281" filterUnits="userSpaceOnUse" color-interpolation-filters="sRGB">
<feFlood flood-opacity="0" result="BackgroundImageFix"/>
<feBlend mode="normal" in="SourceGraphic" in2="BackgroundImageFix" result="shape"/>
<feGaussianBlur stdDeviation="7.5" result="effect1_foregroundBlur_64_582"/>
</filter>
<filter id="filter4_f_64_582" x="58.9987" y="90" width="172.363" height="169.281" filterUnits="userSpaceOnUse" color-interpolation-filters="sRGB">
<feFlood flood-opacity="0" result="BackgroundImageFix"/>
<feBlend mode="normal" in="SourceGraphic" in2="BackgroundImageFix" result="shape"/>
<feGaussianBlur stdDeviation="5" result="effect1_foregroundBlur_64_582"/>
</filter>
</defs>
</svg>
