<svg width="48" height="48" viewBox="0 0 48 48" fill="none" xmlns="http://www.w3.org/2000/svg">
<g filter="url(#filter0_i_32_635)">
<rect width="48" height="48" rx="8" fill="#2B2C2E"/>
<g clip-path="url(#clip0_32_635)">
<path fill-rule="evenodd" clip-rule="evenodd" d="M14 15.4286V20.4286C13.9997 20.57 14.0415 20.7084 14.12 20.8261C14.1984 20.9438 14.3101 21.0355 14.4408 21.0897C14.5714 21.1439 14.7153 21.158 14.854 21.1303C14.9927 21.1027 15.1201 21.0344 15.22 20.9343L17.0657 19.0857L20.1329 22.1514C20.4023 22.4117 20.7632 22.5556 21.1377 22.5524C21.5123 22.5491 21.8706 22.3989 22.1355 22.134C22.4003 21.8692 22.5506 21.5109 22.5538 21.1363C22.5571 20.7617 22.4131 20.4009 22.1529 20.1314L19.0871 17.0657L20.9343 15.22C21.0344 15.1201 21.1027 14.9927 21.1303 14.854C21.158 14.7153 21.1439 14.5714 21.0897 14.4408C21.0355 14.3101 20.9438 14.1984 20.8261 14.12C20.7084 14.0415 20.57 13.9997 20.4286 14H14.7143C14.5248 14 14.3432 14.0753 14.2092 14.2092C14.0753 14.3432 14 14.5248 14 14.7143V15.4286ZM22.1529 27.8671C22.4131 27.5977 22.5571 27.2369 22.5538 26.8623C22.5506 26.4877 22.4003 26.1294 22.1355 25.8645C21.8706 25.5997 21.5123 25.4494 21.1377 25.4462C20.7632 25.4429 20.4023 25.5869 20.1329 25.8471L17.0657 28.9129L15.22 27.0657C15.1201 26.9656 14.9927 26.8973 14.854 26.8697C14.7153 26.842 14.5714 26.8561 14.4408 26.9103C14.3101 26.9645 14.1984 27.0562 14.12 27.1739C14.0415 27.2916 13.9997 27.43 14 27.5714V33.2857C14 33.4752 14.0753 33.6568 14.2092 33.7908C14.3432 33.9247 14.5248 34 14.7143 34H20.4286C20.57 34.0003 20.7084 33.9585 20.8261 33.88C20.9438 33.8016 21.0355 33.6899 21.0897 33.5592C21.1439 33.4286 21.158 33.2847 21.1303 33.146C21.1027 33.0073 21.0344 32.8799 20.9343 32.78L19.0857 30.9343L22.1529 27.8671ZM25.8471 25.8471C26.115 25.5793 26.4783 25.4289 26.8571 25.4289C27.236 25.4289 27.5992 25.5793 27.8671 25.8471L30.9343 28.9129L32.78 27.0657C32.8799 26.9656 33.0073 26.8973 33.146 26.8697C33.2847 26.842 33.4286 26.8561 33.5592 26.9103C33.6899 26.9645 33.8016 27.0562 33.88 27.1739C33.9585 27.2916 34.0003 27.43 34 27.5714V33.2857C34 33.4752 33.9247 33.6568 33.7908 33.7908C33.6568 33.9247 33.4752 34 33.2857 34H27.5714C27.43 34.0003 27.2916 33.9585 27.1739 33.88C27.0562 33.8016 26.9645 33.6899 26.9103 33.5592C26.8561 33.4286 26.842 33.2847 26.8697 33.146C26.8973 33.0073 26.9656 32.8799 27.0657 32.78L28.9129 30.9343L25.8471 27.8671C25.5793 27.5992 25.4289 27.236 25.4289 26.8571C25.4289 26.4783 25.5793 26.115 25.8471 25.8471ZM27.5714 14C27.43 13.9997 27.2916 14.0415 27.1739 14.12C27.0562 14.1984 26.9645 14.3101 26.9103 14.4408C26.8561 14.5714 26.842 14.7153 26.8697 14.854C26.8973 14.9927 26.9656 15.1201 27.0657 15.22L28.9129 17.0657L25.8471 20.1329C25.5869 20.4023 25.4429 20.7632 25.4462 21.1377C25.4494 21.5123 25.5997 21.8706 25.8645 22.1355C26.1294 22.4003 26.4877 22.5506 26.8623 22.5538C27.2369 22.5571 27.5977 22.4131 27.8671 22.1529L30.9343 19.0871L32.78 20.9343C32.8799 21.0344 33.0073 21.1027 33.146 21.1303C33.2847 21.158 33.4286 21.1439 33.5592 21.0897C33.6899 21.0355 33.8016 20.9438 33.88 20.8261C33.9585 20.7084 34.0003 20.57 34 20.4286V14.7143C34 14.5248 33.9247 14.3432 33.7908 14.2092C33.6568 14.0753 33.4752 14 33.2857 14H27.5714Z" fill="white"/>
</g>
</g>
<defs>
<filter id="filter0_i_32_635" x="0" y="0" width="48" height="48" filterUnits="userSpaceOnUse" color-interpolation-filters="sRGB">
<feFlood flood-opacity="0" result="BackgroundImageFix"/>
<feBlend mode="normal" in="SourceGraphic" in2="BackgroundImageFix" result="shape"/>
<feColorMatrix in="SourceAlpha" type="matrix" values="0 0 0 0 0 0 0 0 0 0 0 0 0 0 0 0 0 0 127 0" result="hardAlpha"/>
<feMorphology radius="1" operator="erode" in="SourceAlpha" result="effect1_innerShadow_32_635"/>
<feOffset/>
<feGaussianBlur stdDeviation="4"/>
<feComposite in2="hardAlpha" operator="arithmetic" k2="-1" k3="1"/>
<feColorMatrix type="matrix" values="0 0 0 0 1 0 0 0 0 1 0 0 0 0 1 0 0 0 0.15 0"/>
<feBlend mode="normal" in2="shape" result="effect1_innerShadow_32_635"/>
</filter>
<clipPath id="clip0_32_635">
<rect width="20" height="20" fill="white" transform="translate(14 14)"/>
</clipPath>
</defs>
</svg>
