<svg width="48" height="48" viewBox="0 0 48 48" fill="none" xmlns="http://www.w3.org/2000/svg">
<g filter="url(#filter0_i_32_630)">
<rect width="48" height="48" rx="8" fill="#2B2C2E"/>
<path fill-rule="evenodd" clip-rule="evenodd" d="M18.52 20.3741C19.17 20.3741 19.7933 20.1159 20.2529 19.6563C20.7125 19.1967 20.9707 18.5733 20.9707 17.9234C20.9707 17.2734 20.7125 16.6501 20.2529 16.1905C19.7933 15.7309 19.17 15.4727 18.52 15.4727C17.8702 15.4727 17.2471 15.7308 16.7876 16.1902C16.3281 16.6497 16.07 17.2729 16.07 17.9227C16.07 18.5724 16.3281 19.1956 16.7876 19.6551C17.2471 20.1145 17.8702 20.3741 18.52 20.3741ZM29.48 20.3741C30.13 20.3741 30.7533 20.1159 31.2129 19.6563C31.6725 19.1967 31.9307 18.5733 31.9307 17.9234C31.9307 17.2734 31.6725 16.6501 31.2129 16.1905C30.7533 15.7309 30.13 15.4727 29.48 15.4727C28.8302 15.4727 28.2071 15.7308 27.7476 16.1902C27.2881 16.6497 27.03 17.2729 27.03 17.9227C27.03 18.5724 27.2881 19.1956 27.7476 19.6551C28.2071 20.1145 28.8302 20.3741 29.48 20.3741ZM29.48 20.8841C28.4965 20.8826 27.5412 21.2127 26.7686 21.8212C27.354 22.3255 27.7901 22.9805 28.0294 23.7152C28.2686 24.4499 28.3019 25.2361 28.1257 25.9884H33.1557C33.3452 25.9884 33.5268 25.9131 33.6608 25.7792C33.7947 25.6452 33.87 25.4635 33.87 25.2741C33.87 24.1098 33.4075 22.9932 32.5842 22.1699C31.7609 21.3466 30.6443 20.8841 29.48 20.8841ZM18.52 20.8841C19.5035 20.8826 20.4588 21.2127 21.2314 21.8212C20.646 22.3255 20.2099 22.9805 19.9706 23.7152C19.7314 24.4499 19.698 25.2361 19.8743 25.9884H14.8429C14.6534 25.9884 14.4717 25.9131 14.3378 25.7792C14.2038 25.6452 14.1286 25.4635 14.1286 25.2741C14.1288 24.6976 14.2425 24.1268 14.4633 23.5942C14.6841 23.0617 15.0076 22.5778 15.4154 22.1703C15.8232 21.7628 16.3072 21.4396 16.8399 21.2191C17.3726 20.9987 17.9435 20.8853 18.52 20.8855V20.8841ZM24 27.4784C24.3217 27.4784 24.6403 27.415 24.9376 27.2919C25.2348 27.1688 25.5049 26.9883 25.7324 26.7608C25.9599 26.5333 26.1404 26.2632 26.2635 25.9659C26.3866 25.6687 26.45 25.3501 26.45 25.0284C26.45 24.7066 26.3866 24.388 26.2635 24.0908C26.1404 23.7935 25.9599 23.5235 25.7324 23.296C25.5049 23.0685 25.2348 22.888 24.9376 22.7649C24.6403 22.6417 24.3217 22.5784 24 22.5784C23.3502 22.5784 22.7271 22.8365 22.2676 23.296C21.8081 23.7554 21.55 24.3786 21.55 25.0284C21.55 25.6782 21.8081 26.3013 22.2676 26.7608C22.7271 27.2202 23.3502 27.4784 24 27.4784ZM19.61 32.3784C19.61 31.8019 19.7235 31.231 19.9442 30.6984C20.1648 30.1658 20.4882 29.6818 20.8958 29.2742C21.3034 28.8665 21.7874 28.5432 22.32 28.3225C22.8526 28.1019 23.4235 27.9884 24 27.9884C24.5765 27.9884 25.1474 28.1019 25.68 28.3225C26.2126 28.5432 26.6965 28.8665 27.1042 29.2742C27.5118 29.6818 27.8352 30.1658 28.0558 30.6984C28.2764 31.231 28.39 31.8019 28.39 32.3784C28.39 32.5678 28.3147 32.7495 28.1808 32.8834C28.0468 33.0174 27.8652 33.0927 27.6757 33.0927H20.3243C20.1348 33.0927 19.9532 33.0174 19.8192 32.8834C19.6853 32.7495 19.61 32.5678 19.61 32.3784Z" fill="white"/>
</g>
<defs>
<filter id="filter0_i_32_630" x="0" y="0" width="48" height="48" filterUnits="userSpaceOnUse" color-interpolation-filters="sRGB">
<feFlood flood-opacity="0" result="BackgroundImageFix"/>
<feBlend mode="normal" in="SourceGraphic" in2="BackgroundImageFix" result="shape"/>
<feColorMatrix in="SourceAlpha" type="matrix" values="0 0 0 0 0 0 0 0 0 0 0 0 0 0 0 0 0 0 127 0" result="hardAlpha"/>
<feMorphology radius="1" operator="erode" in="SourceAlpha" result="effect1_innerShadow_32_630"/>
<feOffset/>
<feGaussianBlur stdDeviation="4"/>
<feComposite in2="hardAlpha" operator="arithmetic" k2="-1" k3="1"/>
<feColorMatrix type="matrix" values="0 0 0 0 1 0 0 0 0 1 0 0 0 0 1 0 0 0 0.15 0"/>
<feBlend mode="normal" in2="shape" result="effect1_innerShadow_32_630"/>
</filter>
</defs>
</svg>
